<svg width="1440" height="322" viewBox="0 0 1440 322" fill="none" xmlns="http://www.w3.org/2000/svg">
<g filter="url(#filter0_d_373_117)">
<path fill-rule="evenodd" clip-rule="evenodd" d="M343.537 209.984C350.324 209.984 356.93 209.204 363.268 207.728C372.052 239.573 401.228 262.96 435.866 262.96C452.182 262.96 467.287 257.771 479.618 248.952C488.837 255.849 500.282 259.933 512.681 259.933C530.559 259.933 546.455 251.44 556.552 238.269C570.218 250.783 588.425 258.419 608.415 258.419C650.839 258.419 685.23 224.028 685.23 181.605C685.23 139.181 650.839 104.79 608.415 104.79C575.426 104.79 547.293 125.586 536.413 154.783C529.222 151.358 521.175 149.441 512.681 149.441C508.824 149.441 505.059 149.836 501.425 150.588C488.49 127.761 463.976 112.358 435.866 112.358C433.733 112.358 431.622 112.446 429.534 112.62C424.258 69.8167 387.767 36.6781 343.537 36.6781C308.369 36.6781 278.094 57.6279 264.512 87.7283C262 87.5001 259.455 87.3834 256.883 87.3834C234.31 87.3834 213.834 96.3683 198.839 110.957C187.43 105.08 174.488 101.763 160.77 101.763C144.777 101.763 129.837 106.273 117.153 114.09C105.505 82.1705 74.8768 59.382 38.9263 59.382C-7.05008 59.382 -44.3213 96.6532 -44.3213 142.63C-44.3213 188.606 -7.05008 225.877 38.9263 225.877C54.9196 225.877 69.8595 221.367 82.5436 213.549C94.1918 245.469 124.82 268.258 160.77 268.258C183.344 268.258 203.819 259.273 218.815 244.684C230.224 250.561 243.166 253.879 256.883 253.879C289.002 253.879 316.873 235.689 330.756 209.048C334.927 209.665 339.194 209.984 343.537 209.984ZM819.183 228.904C833.417 228.904 846.816 225.332 858.533 219.036C869.764 230.276 885.286 237.229 902.431 237.229C917.16 237.229 930.69 232.098 941.332 223.525C949.855 227.93 959.53 230.418 969.785 230.418C977.05 230.418 984.023 229.17 990.502 226.876C1007.96 252.323 1037.25 269.014 1070.44 269.014C1088.73 269.014 1105.84 263.943 1120.44 255.13C1133.02 268.785 1151.06 277.339 1171.09 277.339C1202.37 277.339 1228.77 256.497 1237.17 227.945C1250.86 241.631 1269.78 250.095 1290.67 250.095C1321.19 250.095 1347.49 232.025 1359.46 205.999C1369.14 210.499 1379.94 213.012 1391.32 213.012C1433.12 213.012 1467 179.129 1467 137.332C1467 95.5352 1433.12 61.6523 1391.32 61.6523C1360.8 61.6523 1334.49 79.7224 1322.53 105.748C1312.84 101.248 1302.05 98.7354 1290.67 98.7354C1254.82 98.7354 1224.8 123.653 1216.97 157.11C1204.79 146.222 1188.72 139.602 1171.09 139.602C1167.98 139.602 1164.92 139.809 1161.92 140.208C1148.72 102.399 1112.75 75.2747 1070.44 75.2747C1039.86 75.2747 1012.59 89.4415 994.841 111.569C987.178 108.184 978.701 106.303 969.785 106.303C955.056 106.303 941.526 111.435 930.884 120.007C922.361 115.602 912.687 113.114 902.431 113.114C900.249 113.114 898.094 113.227 895.971 113.447C883.379 83.4648 853.74 62.4091 819.183 62.4091C773.207 62.4091 735.936 99.6803 735.936 145.657C735.936 191.633 773.207 228.904 819.183 228.904Z" fill="url(#paint0_linear_373_117)"/>
</g>
<defs>
<filter id="filter0_d_373_117" x="-84.3213" y="0.678101" width="1591.32" height="320.661" filterUnits="userSpaceOnUse" color-interpolation-filters="sRGB">
<feFlood flood-opacity="0" result="BackgroundImageFix"/>
<feColorMatrix in="SourceAlpha" type="matrix" values="0 0 0 0 0 0 0 0 0 0 0 0 0 0 0 0 0 0 127 0" result="hardAlpha"/>
<feOffset dy="4"/>
<feGaussianBlur stdDeviation="20"/>
<feComposite in2="hardAlpha" operator="out"/>
<feColorMatrix type="matrix" values="0 0 0 0 0 0 0 0 0 0 0 0 0 0 0 0 0 0 0.25 0"/>
<feBlend mode="normal" in2="BackgroundImageFix" result="effect1_dropShadow_373_117"/>
<feBlend mode="normal" in="SourceGraphic" in2="effect1_dropShadow_373_117" result="shape"/>
</filter>
<linearGradient id="paint0_linear_373_117" x1="711.34" y1="36.6781" x2="711.34" y2="277.339" gradientUnits="userSpaceOnUse">
<stop stop-color="#FEE1AC"/>
<stop offset="1" stop-color="#FDEC9D"/>
</linearGradient>
</defs>
</svg>
