<svg width="1440" height="339" viewBox="0 0 1440 339" fill="none" xmlns="http://www.w3.org/2000/svg">
<g filter="url(#filter0_d_373_118)">
<path fill-rule="evenodd" clip-rule="evenodd" d="M48.0068 187.359C53.1645 187.359 58.2016 186.843 63.0695 185.86C71.2098 218.877 101.021 243.362 136.552 243.362C151.991 243.362 166.351 238.739 178.321 230.801C189.881 264.105 221.536 288.013 258.775 288.013C305.796 288.013 343.914 249.895 343.914 202.874C343.914 155.852 305.796 117.734 258.775 117.734C238.615 117.734 220.092 124.741 205.507 136.452C193.615 110.236 167.213 92.0029 136.552 92.0029C131.394 92.0029 126.357 92.5188 121.489 93.5019C113.349 60.4849 83.5372 36 48.0068 36C6.21006 36 -27.6729 69.8829 -27.6729 111.68C-27.6729 153.476 6.21006 187.359 48.0068 187.359ZM507.502 221.99C491.918 241.91 467.657 254.714 440.405 254.714C393.384 254.714 355.266 216.596 355.266 169.574C355.266 122.553 393.384 84.4349 440.405 84.4349C451.74 84.4349 462.558 86.65 472.449 90.671C488.032 70.7509 512.294 57.9471 539.546 57.9471C576.579 57.9471 608.09 81.5917 619.806 114.608C622.757 114.175 625.776 113.95 628.848 113.95C648.426 113.95 665.873 123.072 677.172 137.297C695.067 101.896 731.776 77.6238 774.153 77.6238C824.845 77.6238 867.426 112.356 879.395 159.322C892.408 137.156 916.492 122.275 944.053 122.275C964.945 122.275 983.84 130.826 997.429 144.619C1006.67 126.279 1023.22 112.254 1043.25 106.376C1057.77 82.7699 1083.83 67.0287 1113.58 67.0287C1147.72 67.0287 1177.02 87.7728 1189.56 117.345C1194.69 115.159 1200.35 113.95 1206.28 113.95C1216.94 113.95 1226.68 117.846 1234.17 124.292C1247.79 112.207 1265.72 104.868 1285.37 104.868C1294.44 104.868 1303.15 106.434 1311.24 109.31C1313.64 68.8375 1347.22 36.7568 1388.29 36.7568C1430.93 36.7568 1465.49 71.3174 1465.49 113.95C1465.49 156.583 1430.93 191.143 1388.29 191.143C1379.22 191.143 1370.51 189.578 1362.42 186.702C1360.02 227.174 1326.44 259.255 1285.37 259.255C1248.66 259.255 1217.94 233.634 1210.11 199.299C1208.85 199.411 1207.57 199.468 1206.28 199.468C1197.99 199.468 1190.24 197.104 1183.68 193.013C1169.63 215.609 1144.97 230.915 1116.66 231.954C1103.16 245.102 1084.72 253.2 1064.38 253.2C1043.49 253.2 1024.6 244.649 1011.01 230.856C998.68 255.331 973.327 272.12 944.053 272.12C913.055 272.12 886.454 253.296 875.058 226.455C859.071 266.516 819.918 294.824 774.153 294.824C726.177 294.824 685.467 263.715 671.095 220.568C660.057 230.948 645.195 237.308 628.848 237.308C610.468 237.308 593.966 229.269 582.667 216.515C570.02 223.957 555.281 228.226 539.546 228.226C528.211 228.226 517.393 226.011 507.502 221.99Z" fill="url(#paint0_linear_373_118)"/>
</g>
<defs>
<filter id="filter0_d_373_118" x="-67.6729" y="0" width="1573.16" height="338.824" filterUnits="userSpaceOnUse" color-interpolation-filters="sRGB">
<feFlood flood-opacity="0" result="BackgroundImageFix"/>
<feColorMatrix in="SourceAlpha" type="matrix" values="0 0 0 0 0 0 0 0 0 0 0 0 0 0 0 0 0 0 127 0" result="hardAlpha"/>
<feOffset dy="4"/>
<feGaussianBlur stdDeviation="20"/>
<feComposite in2="hardAlpha" operator="out"/>
<feColorMatrix type="matrix" values="0 0 0 0 0 0 0 0 0 0 0 0 0 0 0 0 0 0 0.25 0"/>
<feBlend mode="normal" in2="BackgroundImageFix" result="effect1_dropShadow_373_118"/>
<feBlend mode="normal" in="SourceGraphic" in2="effect1_dropShadow_373_118" result="shape"/>
</filter>
<linearGradient id="paint0_linear_373_118" x1="718.907" y1="36" x2="718.907" y2="294.824" gradientUnits="userSpaceOnUse">
<stop stop-color="#EDC171"/>
<stop offset="1" stop-color="#EF8868"/>
</linearGradient>
</defs>
</svg>
