<svg width="1440" height="370" viewBox="0 0 1440 370" fill="none" xmlns="http://www.w3.org/2000/svg">
<g filter="url(#filter0_d_373_116)">
<path fill-rule="evenodd" clip-rule="evenodd" d="M750.687 185.768C738.804 192.728 724.97 196.717 710.204 196.717C694.236 196.717 679.359 192.052 666.859 184.011C655.212 202.554 634.577 214.88 611.063 214.88C588.764 214.88 569.053 203.794 557.143 186.833C549.003 193.035 538.839 196.717 527.816 196.717C526.855 196.717 525.901 196.689 524.954 196.634C525.345 200.14 525.545 203.702 525.545 207.312C525.545 259.976 482.853 302.669 430.189 302.669C386.499 302.669 349.671 273.285 338.389 233.202C328.742 237.479 318.064 239.854 306.832 239.854C274.299 239.854 246.421 219.925 234.741 191.609C228.973 192.97 222.957 193.69 216.773 193.69C199.854 193.69 184.193 188.299 171.416 179.142C164.139 199.953 144.332 214.88 121.038 214.88C102.57 214.88 86.2936 205.497 76.7159 191.238C59.6958 214.301 32.3269 229.259 1.46432 229.259C-50.1546 229.259 -92 187.414 -92 135.795C-92 84.1761 -50.1546 42.3307 1.46432 42.3307C46.3637 42.3307 83.8684 73.9906 92.8721 116.204C101.047 111.113 110.699 108.172 121.038 108.172C127.322 108.172 133.351 109.258 138.95 111.253C141.275 70.2904 175.228 37.79 216.773 37.79C249.306 37.79 277.183 57.7194 288.864 86.0355C294.632 84.6746 300.648 83.9545 306.832 83.9545C337.769 83.9545 364.497 101.978 377.089 128.097C392.265 117.903 410.533 111.956 430.189 111.956C450.006 111.956 468.411 118.001 483.661 128.348C491.26 111.541 508.173 99.8473 527.816 99.8473C539.156 99.8473 549.586 103.744 557.839 110.272C569.813 93.861 589.193 83.1977 611.063 83.1977C619.611 83.1977 627.779 84.8266 635.272 87.7909C646.82 57.6646 676.014 36.2764 710.204 36.2764C752.043 36.2764 786.402 68.3069 790.095 109.184C793.508 108.52 797.034 108.172 800.641 108.172C818.31 108.172 834.028 116.524 844.063 129.495C863.134 94.2622 900.421 70.3322 943.297 70.3322C987.528 70.3322 1025.81 95.7987 1044.28 132.869C1061.05 121.575 1081.25 114.983 1102.98 114.983C1126.66 114.983 1148.51 122.807 1166.09 136.01C1175.52 119.388 1193.38 108.172 1213.85 108.172C1222.72 108.172 1231.09 110.275 1238.51 114.01C1257.31 72.6237 1299.01 43.8443 1347.43 43.8443C1413.47 43.8443 1467 97.3793 1467 163.418C1467 229.457 1413.47 282.992 1347.43 282.992C1298.77 282.992 1256.9 253.926 1238.23 212.209C1230.88 215.856 1222.61 217.907 1213.85 217.907C1211.92 217.907 1210.02 217.808 1208.14 217.614C1208.17 218.466 1208.18 219.321 1208.18 220.178C1208.18 278.275 1161.08 325.372 1102.98 325.372C1064 325.372 1029.97 304.172 1011.8 272.672C992.811 287.216 969.063 295.857 943.297 295.857C889.314 295.857 844.191 257.924 833.129 207.259C824.034 213.953 812.799 217.907 800.641 217.907C778.445 217.907 759.327 204.728 750.687 185.768Z" fill="url(#paint0_linear_373_116)"/>
</g>
<defs>
<filter id="filter0_d_373_116" x="-132" y="0.276367" width="1639" height="369.096" filterUnits="userSpaceOnUse" color-interpolation-filters="sRGB">
<feFlood flood-opacity="0" result="BackgroundImageFix"/>
<feColorMatrix in="SourceAlpha" type="matrix" values="0 0 0 0 0 0 0 0 0 0 0 0 0 0 0 0 0 0 127 0" result="hardAlpha"/>
<feOffset dy="4"/>
<feGaussianBlur stdDeviation="20"/>
<feComposite in2="hardAlpha" operator="out"/>
<feColorMatrix type="matrix" values="0 0 0 0 0 0 0 0 0 0 0 0 0 0 0 0 0 0 0.25 0"/>
<feBlend mode="normal" in2="BackgroundImageFix" result="effect1_dropShadow_373_116"/>
<feBlend mode="normal" in="SourceGraphic" in2="effect1_dropShadow_373_116" result="shape"/>
</filter>
<linearGradient id="paint0_linear_373_116" x1="1347.43" y1="43.8443" x2="1347.43" y2="282.992" gradientUnits="userSpaceOnUse">
<stop stop-color="#EDC171"/>
<stop offset="1" stop-color="#EE8364"/>
</linearGradient>
</defs>
</svg>
