<svg width="1440" height="390" viewBox="0 0 1440 390" fill="none" xmlns="http://www.w3.org/2000/svg">
<g filter="url(#filter0_d_501_5)">
<path fill-rule="evenodd" clip-rule="evenodd" d="M-47 215.452C-73.9785 199.06 -92 169.394 -92 135.519C-92 83.8997 -50.1546 42.0543 1.46432 42.0543C46.3637 42.0543 83.8684 73.7143 92.8721 115.928C101.047 110.837 110.699 107.896 121.038 107.896C127.322 107.896 133.351 108.982 138.95 110.977C141.275 70.014 175.228 37.5136 216.773 37.5136C249.306 37.5136 277.183 57.443 288.864 85.7592C294.632 84.3982 300.648 83.6781 306.832 83.6781C337.769 83.6781 364.497 101.701 377.089 127.821C392.265 117.627 410.533 111.68 430.189 111.68C450.006 111.68 468.411 117.725 483.661 128.071C491.26 111.265 508.173 99.5709 527.816 99.5709C539.156 99.5709 549.586 103.468 557.839 109.996C569.813 93.5847 589.193 82.9213 611.063 82.9213C619.611 82.9213 627.779 84.5502 635.272 87.5145C646.82 57.3882 676.014 36 710.204 36C752.043 36 786.402 68.0305 790.095 108.908C793.508 108.244 797.034 107.896 800.641 107.896C818.31 107.896 834.028 116.247 844.063 129.219C863.134 93.9858 900.421 70.0559 943.297 70.0559C987.528 70.0559 1025.81 95.5223 1044.28 132.593C1061.05 121.299 1081.25 114.707 1102.98 114.707C1126.66 114.707 1148.51 122.531 1166.09 135.734C1175.52 119.111 1193.38 107.896 1213.85 107.896C1222.72 107.896 1231.09 109.999 1238.51 113.734C1257.31 72.3474 1299.01 43.5679 1347.43 43.5679C1413.47 43.5679 1467 97.1029 1467 163.142C1467 177.324 1464.53 190.929 1460 203.551V346H-47V215.452Z" fill="url(#paint0_linear_501_5)"/>
</g>
<defs>
<filter id="filter0_d_501_5" x="-132" y="0" width="1639" height="390" filterUnits="userSpaceOnUse" color-interpolation-filters="sRGB">
<feFlood flood-opacity="0" result="BackgroundImageFix"/>
<feColorMatrix in="SourceAlpha" type="matrix" values="0 0 0 0 0 0 0 0 0 0 0 0 0 0 0 0 0 0 127 0" result="hardAlpha"/>
<feOffset dy="4"/>
<feGaussianBlur stdDeviation="20"/>
<feComposite in2="hardAlpha" operator="out"/>
<feColorMatrix type="matrix" values="0 0 0 0 0 0 0 0 0 0 0 0 0 0 0 0 0 0 0.25 0"/>
<feBlend mode="normal" in2="BackgroundImageFix" result="effect1_dropShadow_501_5"/>
<feBlend mode="normal" in="SourceGraphic" in2="effect1_dropShadow_501_5" result="shape"/>
</filter>
<linearGradient id="paint0_linear_501_5" x1="687.5" y1="36" x2="687.5" y2="346" gradientUnits="userSpaceOnUse">
<stop stop-color="#FFBE6B"/>
<stop offset="1" stop-color="#FFAC70"/>
</linearGradient>
</defs>
</svg>
