<svg width="1440" height="322" viewBox="0 0 1440 322" fill="none" xmlns="http://www.w3.org/2000/svg">
<g filter="url(#filter0_d_492_15)">
<path fill-rule="evenodd" clip-rule="evenodd" d="M221.486 246C232.228 251.054 244.226 253.879 256.883 253.879C269.541 253.879 281.539 251.054 292.28 246H388.253C401.228 256.601 417.804 262.96 435.866 262.96C452.182 262.96 467.287 257.771 479.618 248.952C488.837 255.849 500.282 259.933 512.681 259.933C526.757 259.933 539.605 254.668 549.361 246H566.521C578.57 253.855 592.959 258.419 608.415 258.419C623.871 258.419 638.26 253.855 650.309 246H1007.75C1024.65 260.354 1046.53 269.014 1070.44 269.014C1088.73 269.014 1105.84 263.943 1120.44 255.13C1133.02 268.785 1151.06 277.339 1171.09 277.339C1195.29 277.339 1216.56 264.866 1228.85 246H1266.05C1273.77 248.654 1282.05 250.095 1290.67 250.095C1299.29 250.095 1307.57 248.654 1315.29 246H1439V196.107C1456.08 182.231 1467 161.056 1467 137.332C1467 95.5352 1433.12 61.6523 1391.32 61.6523C1360.8 61.6523 1334.49 79.7224 1322.53 105.748C1312.84 101.248 1302.05 98.7354 1290.67 98.7354C1257.41 98.7354 1229.17 120.183 1219.01 150H1207.5C1196.94 143.41 1184.46 139.602 1171.09 139.602C1167.98 139.602 1164.92 139.809 1161.92 140.208C1148.72 102.399 1112.75 75.2747 1070.44 75.2747C1039.86 75.2747 1012.59 89.4415 994.841 111.569C987.178 108.184 978.701 106.303 969.785 106.303C955.056 106.303 941.526 111.435 930.884 120.007C922.361 115.602 912.687 113.114 902.431 113.114C900.249 113.114 898.094 113.227 895.971 113.447C883.379 83.4648 853.74 62.4091 819.183 62.4091C773.207 62.4091 735.936 99.6803 735.936 145.657C735.936 147.114 735.973 148.562 736.047 150H678.448C666.398 123.341 639.573 104.79 608.415 104.79C577.257 104.79 550.432 123.341 538.382 150H520.571C517.994 149.631 515.36 149.441 512.681 149.441C510.002 149.441 507.367 149.631 504.79 150H501.088C488.067 127.497 463.734 112.358 435.866 112.358C433.733 112.358 431.622 112.446 429.534 112.62C424.258 69.8167 387.767 36.6781 343.537 36.6781C308.369 36.6781 278.094 57.6279 264.512 87.7283C262 87.5001 259.455 87.3834 256.883 87.3834C234.31 87.3834 213.834 96.3683 198.839 110.957C187.43 105.08 174.488 101.763 160.77 101.763C144.777 101.763 129.837 106.273 117.153 114.09C105.505 82.1705 74.8768 59.382 38.9263 59.382C-7.05008 59.382 -44.3213 96.6532 -44.3213 142.63C-44.3213 174.139 -26.8159 201.559 -1 215.696V246H104.11C118.969 259.811 138.883 268.258 160.77 268.258C182.657 268.258 202.572 259.811 217.431 246H221.486Z" fill="url(#paint0_linear_492_15)"/>
</g>
<defs>
<filter id="filter0_d_492_15" x="-84.3213" y="0.678101" width="1591.32" height="320.661" filterUnits="userSpaceOnUse" color-interpolation-filters="sRGB">
<feFlood flood-opacity="0" result="BackgroundImageFix"/>
<feColorMatrix in="SourceAlpha" type="matrix" values="0 0 0 0 0 0 0 0 0 0 0 0 0 0 0 0 0 0 127 0" result="hardAlpha"/>
<feOffset dy="4"/>
<feGaussianBlur stdDeviation="20"/>
<feComposite in2="hardAlpha" operator="out"/>
<feColorMatrix type="matrix" values="0 0 0 0 0 0 0 0 0 0 0 0 0 0 0 0 0 0 0.25 0"/>
<feBlend mode="normal" in2="BackgroundImageFix" result="effect1_dropShadow_492_15"/>
<feBlend mode="normal" in="SourceGraphic" in2="effect1_dropShadow_492_15" result="shape"/>
</filter>
<linearGradient id="paint0_linear_492_15" x1="711.34" y1="36.6781" x2="711.34" y2="277.339" gradientUnits="userSpaceOnUse">
<stop stop-color="#FFE3AB"/>
<stop offset="1" stop-color="#F6E09F"/>
</linearGradient>
</defs>
</svg>
