<svg width="1440" height="339" viewBox="0 0 1440 339" fill="none" xmlns="http://www.w3.org/2000/svg">
<g filter="url(#filter0_d_492_12)">
<path fill-rule="evenodd" clip-rule="evenodd" d="M340.522 179C330.201 143.599 297.508 117.734 258.775 117.734C238.615 117.734 220.092 124.741 205.507 136.452C193.615 110.236 167.213 92.0029 136.552 92.0029C131.394 92.0029 126.357 92.5188 121.489 93.5019C113.349 60.4849 83.5372 36 48.0068 36C6.21006 36 -27.6729 69.8829 -27.6729 111.68C-27.6729 141.006 -10.9926 166.436 13.3979 179H0V295H1440V179H1429.87C1451.29 165.281 1465.49 141.273 1465.49 113.95C1465.49 71.3174 1430.93 36.7568 1388.29 36.7568C1347.22 36.7568 1313.64 68.8375 1311.24 109.31C1303.15 106.434 1294.44 104.868 1285.37 104.868C1265.72 104.868 1247.79 112.207 1234.17 124.292C1226.68 117.846 1216.94 113.95 1206.28 113.95C1200.35 113.95 1194.69 115.159 1189.56 117.345C1177.02 87.7728 1147.72 67.0287 1113.58 67.0287C1083.83 67.0287 1057.77 82.7699 1043.25 106.376C1023.22 112.254 1006.67 126.279 997.429 144.619C983.84 130.826 964.945 122.275 944.053 122.275C916.492 122.275 892.408 137.156 879.395 159.322C867.426 112.356 824.845 77.6238 774.153 77.6238C731.776 77.6238 695.067 101.896 677.172 137.297C665.873 123.072 648.426 113.95 628.848 113.95C625.776 113.95 622.757 114.175 619.806 114.608C608.09 81.5917 576.579 57.9471 539.546 57.9471C512.294 57.9471 488.032 70.7509 472.449 90.671C462.558 86.65 451.74 84.4349 440.405 84.4349C393.384 84.4349 355.266 122.553 355.266 169.574C355.266 172.76 355.441 175.905 355.781 179H340.522Z" fill="url(#paint0_linear_492_12)"/>
</g>
<defs>
<filter id="filter0_d_492_12" x="-67.6729" y="0" width="1573.16" height="339" filterUnits="userSpaceOnUse" color-interpolation-filters="sRGB">
<feFlood flood-opacity="0" result="BackgroundImageFix"/>
<feColorMatrix in="SourceAlpha" type="matrix" values="0 0 0 0 0 0 0 0 0 0 0 0 0 0 0 0 0 0 127 0" result="hardAlpha"/>
<feOffset dy="4"/>
<feGaussianBlur stdDeviation="20"/>
<feComposite in2="hardAlpha" operator="out"/>
<feColorMatrix type="matrix" values="0 0 0 0 0 0 0 0 0 0 0 0 0 0 0 0 0 0 0.25 0"/>
<feBlend mode="normal" in2="BackgroundImageFix" result="effect1_dropShadow_492_12"/>
<feBlend mode="normal" in="SourceGraphic" in2="effect1_dropShadow_492_12" result="shape"/>
</filter>
<linearGradient id="paint0_linear_492_12" x1="718.907" y1="36" x2="718.907" y2="295" gradientUnits="userSpaceOnUse">
<stop stop-color="#EDC171"/>
<stop offset="1" stop-color="#E2A273"/>
</linearGradient>
</defs>
</svg>
