<svg width="1440" height="310" viewBox="0 0 1440 310" fill="none" xmlns="http://www.w3.org/2000/svg">
<path fill-rule="evenodd" clip-rule="evenodd" d="M-47 179.452C-73.9785 163.06 -92 133.394 -92 99.5186C-92 47.8997 -50.1546 6.05432 1.46432 6.05432C46.3637 6.05432 83.8684 37.7143 92.8721 79.9276C101.047 74.8366 110.699 71.8957 121.038 71.8957C127.322 71.8957 133.351 72.9818 138.95 74.9767C141.275 34.014 175.228 1.51361 216.773 1.51361C249.306 1.51361 277.183 21.443 288.864 49.7592C294.632 48.3982 300.648 47.6781 306.832 47.6781C337.769 47.6781 364.497 65.7013 377.089 91.8207C392.265 81.6271 410.533 75.6796 430.189 75.6796C450.006 75.6796 468.411 81.7246 483.661 92.0712C491.26 75.2649 508.173 63.5709 527.816 63.5709C539.156 63.5709 549.586 67.468 557.839 73.9959C569.813 57.5847 589.193 46.9213 611.063 46.9213C619.611 46.9213 627.779 48.5502 635.272 51.5145C646.82 21.3882 676.014 0 710.204 0C752.043 0 786.402 32.0305 790.095 72.9081C793.508 72.2437 797.034 71.8957 800.641 71.8957C818.31 71.8957 834.028 80.2474 844.063 93.2185C863.134 57.9858 900.421 34.0559 943.297 34.0559C987.528 34.0559 1025.81 59.5223 1044.28 96.5926C1061.05 85.2988 1081.25 78.7068 1102.98 78.7068C1126.66 78.7068 1148.51 86.5305 1166.09 99.7339C1175.52 83.1112 1193.38 71.8957 1213.85 71.8957C1222.72 71.8957 1231.09 73.9989 1238.51 77.7336C1257.31 36.3474 1299.01 7.56793 1347.43 7.56793C1413.47 7.56793 1467 61.1029 1467 127.142C1467 141.324 1464.53 154.929 1460 167.551V310H-47V179.452Z" fill="url(#paint0_linear_501_5)"/>
<defs>
<linearGradient id="paint0_linear_501_5" x1="687.5" y1="0" x2="687.5" y2="310" gradientUnits="userSpaceOnUse">
<stop stop-color="#FFBE6B"/>
<stop offset="1" stop-color="#FFAC70"/>
</linearGradient>
</defs>
</svg>
